<svg version="1.1" id="Layer_1" xmlns="http://www.w3.org/2000/svg" xmlns:xlink="http://www.w3.org/1999/xlink" x="0px" y="0px"
	 width="100%" viewBox="0 0 194 274" enable-background="new 0 0 194 274" xml:space="preserve">
<path fill="#FFFFFF" opacity="1.000000" stroke="none" 
	d="
M94.000000,275.000000 
	C62.683144,275.000000 31.866289,275.000000 1.024717,275.000000 
	C1.024717,183.731964 1.024717,92.463913 1.024717,1.097932 
	C65.566689,1.097932 130.133575,1.097932 194.850220,1.097932 
	C194.850220,92.333138 194.850220,183.666550 194.850220,275.000000 
	C161.464157,275.000000 127.982079,275.000000 94.000000,275.000000 
M43.486568,45.970493 
	C39.731377,49.736263 35.638603,53.224937 32.280251,57.316441 
	C18.753979,73.795563 12.610282,92.881416 15.266888,113.985207 
	C17.874815,134.702301 25.656986,154.020218 37.126446,171.305374 
	C49.810184,190.420517 63.829720,208.666809 77.657082,226.997620 
	C83.810600,235.155258 90.918465,242.593002 97.878616,250.689545 
	C99.591896,248.868988 101.007614,247.510025 102.257896,246.012924 
	C111.820244,234.562820 121.523323,223.224472 130.853455,211.587448 
	C148.636215,189.407883 164.705002,166.144409 174.409729,139.103500 
	C180.799255,121.299927 183.688324,103.290573 178.292908,84.537476 
	C168.723373,51.276169 133.132751,25.365189 99.366936,25.745529 
	C78.253746,25.983353 60.160744,32.466137 43.486568,45.970493 
z"/>
<path fill="#020101" opacity="1.000000" stroke="none" 
	d="
M43.739372,45.720852 
	C60.160744,32.466137 78.253746,25.983353 99.366936,25.745529 
	C133.132751,25.365189 168.723373,51.276169 178.292908,84.537476 
	C183.688324,103.290573 180.799255,121.299927 174.409729,139.103500 
	C164.705002,166.144409 148.636215,189.407883 130.853455,211.587448 
	C121.523323,223.224472 111.820244,234.562820 102.257896,246.012924 
	C101.007614,247.510025 99.591896,248.868988 97.878616,250.689545 
	C90.918465,242.593002 83.810600,235.155258 77.657082,226.997620 
	C63.829720,208.666809 49.810184,190.420517 37.126446,171.305374 
	C25.656986,154.020218 17.874815,134.702301 15.266888,113.985207 
	C12.610282,92.881416 18.753979,73.795563 32.280251,57.316441 
	C35.638603,53.224937 39.731377,49.736263 43.739372,45.720852 
M95.023911,239.535294 
	C96.060287,240.469574 97.096664,241.403839 98.624519,242.781158 
	C109.675858,229.244751 120.661934,216.385361 130.978790,203.009811 
	C145.981064,183.559692 158.827347,162.851410 164.441116,138.498169 
	C169.515076,116.486610 164.904922,96.681854 148.830124,80.673126 
	C141.188126,73.062538 131.938492,66.980202 123.047768,60.731064 
	C111.624634,52.701939 98.792030,50.258591 85.572563,55.032612 
	C68.347618,61.253159 53.853924,71.866005 42.302509,86.065941 
	C35.372177,94.585266 31.118734,104.581146 30.023096,115.653099 
	C28.225922,133.814438 33.902348,150.277435 41.714268,166.258484 
	C55.077377,193.595810 75.200211,216.007782 95.023911,239.535294 
z"/>
<path fill="#FEFDFD" opacity="1.000000" stroke="none" 
	d="
M94.776184,239.269943 
	C75.200211,216.007782 55.077377,193.595810 41.714268,166.258484 
	C33.902348,150.277435 28.225922,133.814438 30.023096,115.653099 
	C31.118734,104.581146 35.372177,94.585266 42.302509,86.065941 
	C53.853924,71.866005 68.347618,61.253159 85.572563,55.032612 
	C98.792030,50.258591 111.624634,52.701939 123.047768,60.731064 
	C131.938492,66.980202 141.188126,73.062538 148.830124,80.673126 
	C164.904922,96.681854 169.515076,116.486610 164.441116,138.498169 
	C158.827347,162.851410 145.981064,183.559692 130.978790,203.009811 
	C120.661934,216.385361 109.675858,229.244751 98.624519,242.781158 
	C97.096664,241.403839 96.060287,240.469574 94.776184,239.269943 
M56.018295,81.694595 
	C57.292881,78.891617 58.567463,76.088638 59.842045,73.285667 
	C46.362499,82.279366 40.183620,95.330681 39.135201,110.659988 
	C38.191902,124.452301 43.106834,137.138641 48.886379,149.399918 
	C57.043713,166.705673 68.644821,181.713867 80.725182,196.369553 
	C86.270805,203.097397 92.009109,209.666412 98.089165,216.811752 
	C105.589645,207.799774 112.750122,199.369995 119.719315,190.784912 
	C132.517639,175.019119 144.148712,158.549210 151.447250,139.340851 
	C158.234451,121.478256 159.754669,103.967064 149.540222,86.783997 
	C146.216965,81.193527 142.371292,76.162735 135.735641,72.512154 
	C150.026443,99.157494 140.937607,120.364067 127.078232,131.919159 
	C109.546242,146.536224 89.414047,146.345093 72.498207,134.743195 
	C54.919277,122.686523 48.665913,101.416275 56.018295,81.694595 
z"/>
<path fill="#010101" opacity="1.000000" stroke="none" 
	d="
M55.991909,82.092094 
	C48.665913,101.416275 54.919277,122.686523 72.498207,134.743195 
	C89.414047,146.345093 109.546242,146.536224 127.078232,131.919159 
	C140.937607,120.364067 150.026443,99.157494 135.735641,72.512154 
	C142.371292,76.162735 146.216965,81.193527 149.540222,86.783997 
	C159.754669,103.967064 158.234451,121.478256 151.447250,139.340851 
	C144.148712,158.549210 132.517639,175.019119 119.719315,190.784912 
	C112.750122,199.369995 105.589645,207.799774 98.089165,216.811752 
	C92.009109,209.666412 86.270805,203.097397 80.725182,196.369553 
	C68.644821,181.713867 57.043713,166.705673 48.886379,149.399918 
	C43.106834,137.138641 38.191902,124.452301 39.135201,110.659988 
	C40.183620,95.330681 46.362499,82.279366 59.842045,73.285667 
	C58.567463,76.088638 57.292881,78.891617 55.991909,82.092094 
z"/>
</svg>