<svg version="1.1" id="Layer_1" xmlns="http://www.w3.org/2000/svg" xmlns:xlink="http://www.w3.org/1999/xlink" x="0px" y="0px"
	 width="100%" viewBox="0 0 1000 1000" enable-background="new 0 0 1000 1000" xml:space="preserve">
<path fill="none" opacity="1.000000" stroke="#000000" stroke-linecap="round" stroke-linejoin="round" stroke-width="10.000000"
	d="
M505.500000,960.500000 
	C512.164917,956.407410 516.116516,949.679443 520.862549,943.887390 
	C534.255737,927.542847 547.034607,910.693542 559.993225,893.994751 
	C593.959351,850.225281 626.425232,805.348206 657.394653,759.428955 
	C686.318848,716.542175 713.738525,672.679138 739.014832,627.508301 
	C760.299561,589.471069 780.205322,550.745361 796.918396,510.466156 
	C803.382080,494.888306 809.350342,479.104340 814.631592,463.043274 
	C820.257812,445.933411 825.057129,428.612366 828.304749,410.964081 
	C830.720520,397.835724 831.514343,384.407074 832.087952,371.003754 
	C832.674194,357.306061 832.164185,343.623199 831.292969,330.013245 
	C830.454834,316.920502 828.585876,303.898407 825.756287,290.944031 
	C822.208069,274.699768 817.468018,258.960266 811.526550,243.489807 
	C801.665588,217.813889 788.267883,194.129517 772.015564,171.988586 
	C757.680847,152.459976 741.327698,134.771286 722.939819,119.070511 
	C705.429077,104.118767 686.552673,91.113373 666.057556,80.389984 
	C649.473938,71.713173 632.556335,63.860146 614.963074,57.603828 
	C599.554688,52.124477 583.677734,48.270809 567.518921,45.393806 
	C543.170227,41.058643 518.666565,38.952896 494.003326,39.622906 
	C475.004517,40.139046 456.194611,42.501759 437.453491,46.268528 
	C416.128174,50.554707 395.598572,57.084309 375.548248,65.120399 
	C353.226959,74.066673 332.186554,85.562515 312.477600,99.468231 
	C283.091583,120.201630 257.793945,145.041153 236.493622,173.995300 
	C223.849167,191.183289 213.184448,209.487671 204.446228,228.975891 
	C195.563965,248.785339 188.959335,269.291321 184.523987,290.505005 
	C180.731674,308.643188 178.270721,326.934418 177.364944,345.493408 
	C176.645615,360.231964 176.766495,374.945221 178.672348,389.477386 
	C181.562790,411.516876 186.409790,433.228455 193.010010,454.496887 
	C200.020355,477.087006 208.177628,499.265839 217.528915,520.987549 
	C227.910995,545.103638 239.207993,568.789307 251.483185,592.008911 
	C265.093567,617.754028 279.418121,643.081970 294.438965,668.036743 
	C311.138580,695.780518 328.575378,723.039368 346.482361,750.011719 
	C374.457550,792.149353 403.663818,833.406555 434.515076,873.488403 
	C453.934082,898.717407 473.350800,923.951721 493.144257,948.885498 
	C496.510193,953.125488 499.248352,958.494446 505.000000,960.500000 
"/>
<path fill="none" opacity="1.000000" stroke="#000000" stroke-linecap="round" stroke-linejoin="round" stroke-width="10.000000"
	d="
M495.000000,15.500000 
	C490.500000,15.833333 486.003326,16.388170 481.499329,16.455605 
	C470.908081,16.614180 460.416748,18.043900 450.022003,19.642977 
	C429.078979,22.864758 408.634277,28.238050 388.463440,34.889099 
	C359.078705,44.578293 331.352020,57.810276 305.637146,74.708687 
	C278.546875,92.510918 254.347900,113.996033 233.514587,139.012146 
	C212.824692,163.856003 195.581711,190.922043 182.571625,220.531464 
	C172.823196,242.717712 165.329041,265.646973 160.324997,289.463226 
	C156.947372,305.538788 155.122406,321.627655 154.378113,337.994446 
	C153.572174,355.717224 154.415039,373.364075 155.609650,390.992584 
	C156.526001,404.514801 159.289963,417.843750 162.575851,430.981018 
	C167.183334,449.402100 172.614243,467.605988 179.022461,485.491943 
	C185.611572,503.882812 192.737106,522.075256 200.544891,539.980408 
	C208.502533,558.229187 217.033478,576.221497 226.007767,593.996094 
	C244.351105,630.327148 264.307098,665.750305 285.448883,700.531067 
	C308.228882,738.006836 332.429688,774.557434 357.647705,810.396057 
	C378.761688,840.402283 400.919373,869.687378 423.083191,898.936951 
	C438.988861,919.927673 455.526001,940.446777 472.062653,960.949524 
	C479.695190,970.412476 487.928284,979.397217 496.022827,988.479675 
	C502.465790,995.709045 507.158051,996.008423 513.923218,988.926636 
	C520.607971,981.929077 526.875183,974.501465 532.954834,966.963562 
	C544.278625,952.923645 555.230835,938.584351 566.522217,924.517822 
	C587.230957,898.719421 607.027954,872.243958 626.604553,845.576721 
	C647.001099,817.792603 666.818665,789.623108 685.982422,760.988281 
	C715.084900,717.503052 742.356506,672.870972 767.351624,626.919312 
	C783.092468,597.981079 797.544739,568.352417 810.615723,538.049927 
	C822.048035,511.546539 831.741577,484.433624 840.326477,456.945801 
	C845.282349,441.077667 849.059448,424.777710 852.298523,408.460022 
	C854.373413,398.006714 855.136963,387.179260 855.348633,376.497009 
	C855.655396,361.009949 855.939270,345.498993 855.037781,329.997803 
	C853.831238,309.252289 850.391296,289.020660 844.736389,268.933441 
	C838.147400,245.528152 829.685669,223.066391 818.580627,201.458572 
	C807.609863,180.112106 794.201904,160.496216 779.021423,141.982452 
	C757.347900,115.550125 732.079651,93.142326 703.465454,74.553207 
	C685.281250,62.739929 666.060608,52.936039 646.108154,44.251526 
	C625.326599,35.206154 603.706055,29.263554 581.942566,23.725725 
	C573.538940,21.587387 564.708801,20.596983 556.027161,19.316051 
	C535.921326,16.349527 515.757141,15.465032 495.500000,15.500000 
"/>
<path fill="none" opacity="1.000000" stroke="#000000" stroke-linecap="round" stroke-linejoin="round" stroke-width="10.000000"
	d="
M497.500000,212.000000 
	C496.166656,212.166672 494.829865,212.501770 493.500519,212.474396 
	C476.966431,212.134293 461.580902,217.035248 446.518799,223.047134 
	C424.288177,231.920319 405.231537,245.495544 389.547852,263.541595 
	C372.429718,283.238129 360.717590,305.688354 355.405426,331.480530 
	C351.224457,351.780182 350.593750,372.178558 353.682373,392.472260 
	C357.277344,416.093079 366.800201,437.515656 381.500946,456.499268 
	C395.908905,475.104919 413.411621,490.126373 434.013763,501.475006 
	C445.951904,508.051056 458.686890,512.730408 472.016083,515.420349 
	C488.688812,518.785095 505.483490,519.283813 522.513611,517.641296 
	C551.492798,514.846313 576.941833,503.966980 599.471436,485.964294 
	C626.208618,464.599548 645.459473,438.043884 653.934631,404.483490 
	C657.734985,389.434967 659.331848,374.012024 658.431824,358.503967 
	C656.727356,329.136963 648.406799,301.804565 631.455811,277.530853 
	C612.981201,251.075363 588.520935,232.315521 558.017578,221.450623 
	C546.470398,217.337677 534.757812,214.516617 522.513367,213.358643 
	C514.338623,212.585556 506.196777,212.008423 498.000000,212.000000 
"/>
<path fill="none" opacity="1.000000" stroke="#000000" stroke-linecap="round" stroke-linejoin="round" stroke-width="10.000000"
	d="
M490.000000,235.500000 
	C485.896759,237.497055 481.268250,237.382233 476.951630,238.262939 
	C454.138702,242.917343 434.960419,254.090485 418.025269,269.527740 
	C400.085876,285.880371 387.238892,305.474304 380.432861,328.980560 
	C376.298279,343.260406 374.685425,357.609894 375.345062,372.506866 
	C376.326385,394.666962 383.052032,414.840088 394.567596,433.458191 
	C408.329834,455.708649 427.066193,472.557312 450.981506,483.540253 
	C460.644165,487.977783 470.737396,491.513153 481.045135,493.228790 
	C495.198090,495.584442 509.475739,496.249725 524.046021,493.770355 
	C544.466919,490.295380 563.136230,483.372589 579.988159,471.483215 
	C598.687378,458.290558 612.951233,441.269745 622.427185,420.466858 
	C628.783508,406.512756 633.000183,391.924072 634.599976,376.510376 
	C637.311096,350.389374 631.310669,326.268341 618.961914,303.520660 
	C604.519165,276.915527 583.015869,257.867462 555.494080,245.513184 
	C543.417480,240.092117 530.685608,237.540115 517.511353,236.372131 
	C508.494141,235.572678 499.508820,235.595352 490.500000,235.500000 
"/>
</svg>