<svg version="1.1" id="Layer_1" xmlns="http://www.w3.org/2000/svg" xmlns:xlink="http://www.w3.org/1999/xlink" x="0px" y="0px"
	 width="100%" viewBox="0 0 992 992" enable-background="new 0 0 992 992" xml:space="preserve">
<path fill="#000000" opacity="1.000000" stroke="none" 
	d="
M493.468628,993.000000 
	C425.242340,915.220703 364.276337,832.338684 307.781830,746.116577 
	C274.425690,695.208252 243.909134,642.639099 216.963333,588.047668 
	C197.558334,548.733582 180.677505,508.384033 166.944702,466.686890 
	C152.660110,423.314453 146.359009,378.966553 148.891113,333.428101 
	C151.987549,277.740234 169.691238,226.598373 198.186020,178.997726 
	C221.592590,139.896988 251.823593,106.914536 288.563324,79.991379 
	C320.274078,56.753502 355.096954,39.574940 392.568329,27.741535 
	C418.987976,19.398254 445.949554,13.928879 473.597290,11.535586 
	C543.586670,5.477047 609.898926,18.669727 672.377991,50.230247 
	C741.703064,85.248917 793.778137,137.850143 828.020752,207.671188 
	C843.879639,240.007553 854.516235,274.178833 858.938599,309.932251 
	C861.777039,332.880554 862.011963,356.051880 860.686096,379.234619 
	C857.847534,428.867310 841.443542,474.945648 823.643982,520.539673 
	C798.726135,584.367126 765.585083,644.067139 729.909302,702.401794 
	C680.814575,782.678223 625.891602,858.843994 567.456909,932.532227 
	C551.412292,952.765198 535.466736,973.075317 518.200928,992.735718 
	C509.979095,993.000000 501.958191,993.000000 493.468628,993.000000 
M736.013672,105.497314 
	C716.087036,88.201706 694.272217,73.650917 670.932312,61.441525 
	C646.710205,48.770641 621.290527,39.116032 594.776062,32.359039 
	C568.653992,25.702040 542.244385,21.547077 515.194702,21.109385 
	C507.398743,20.983234 499.646790,21.268860 491.878510,21.238960 
	C475.870911,21.177347 459.988922,22.825119 444.367737,25.681366 
	C400.754578,33.655762 359.597961,48.598602 321.385437,71.327774 
	C283.307739,93.976753 251.056763,123.132278 224.701019,158.666229 
	C199.190170,193.061081 180.898239,231.062759 169.583649,272.402069 
	C162.845200,297.021820 158.971329,322.023102 159.368011,347.597565 
	C159.543259,358.897034 159.223846,370.178314 160.157410,381.502167 
	C161.167511,393.754242 162.471130,405.918457 165.061264,417.912323 
	C173.824402,458.490814 187.780960,497.381805 204.228394,535.377625 
	C221.091263,574.333130 240.415100,612.080750 261.300385,649.047607 
	C284.935638,690.881958 310.441040,731.525696 337.320099,771.344055 
	C363.734375,810.473877 391.485504,848.626404 420.167053,886.106445 
	C436.308990,907.200256 452.530670,928.245605 469.251801,948.878906 
	C479.187500,961.139404 488.917145,973.620850 499.953918,984.969788 
	C504.383331,989.524475 504.806366,989.640137 509.579102,985.303284 
	C516.505554,979.009399 522.208984,971.599426 528.041016,964.360168 
	C549.905640,937.219543 571.649231,909.987244 592.783386,882.260315 
	C620.977295,845.271240 648.276184,807.643311 674.208008,769.055908 
	C708.062378,718.679321 740.042053,667.142700 768.417664,613.417236 
	C795.504028,562.132751 819.364380,509.537598 835.565674,453.691589 
	C843.066650,427.835480 849.904846,401.821930 850.541382,374.724152 
	C851.126587,349.807556 851.033569,324.865234 846.693054,300.189423 
	C838.702148,254.761093 822.075745,212.686188 796.664062,174.222687 
	C779.818359,148.724716 759.871521,125.817253 736.013672,105.497314 
z"/>
<path fill="#000000" opacity="1.000000" stroke="none" 
	d="
M409.059387,47.742325 
	C429.092224,42.012932 449.099945,38.075962 469.373779,35.820782 
	C486.924835,33.868473 504.659576,33.837761 522.236206,34.860188 
	C553.080811,36.654408 583.550659,41.175163 612.913940,51.481426 
	C652.122131,65.243156 688.539368,83.995033 720.724976,110.599876 
	C759.576355,142.714706 789.684387,181.508575 810.522888,227.409546 
	C821.966980,252.617508 830.028870,278.945465 834.093506,306.314819 
	C837.516785,329.366058 838.245667,352.684143 837.215210,375.947479 
	C835.296326,419.270203 822.716309,460.083923 806.796631,500.028503 
	C792.317932,536.357483 775.489136,571.593323 756.864990,605.954773 
	C723.975342,666.635925 687.392273,725.044739 648.239868,781.876831 
	C619.865601,823.063904 590.274475,863.355042 559.745056,902.952454 
	C544.130859,923.204346 528.013672,943.077332 511.764282,962.825684 
	C506.373810,969.376831 503.898834,967.954834 499.499908,963.543823 
	C487.962524,951.974915 478.259888,938.852539 468.295746,926.000854 
	C447.133209,898.705444 426.255371,871.183960 405.594147,843.506348 
	C377.853912,806.345825 351.911133,767.935059 326.606415,729.077698 
	C303.915161,694.233398 282.194214,658.802490 262.063354,622.435791 
	C243.933441,589.683838 227.054138,556.282898 212.429810,521.764465 
	C199.323517,490.829071 187.948395,459.345703 180.356491,426.580170 
	C176.501862,409.944153 173.647293,393.174530 172.546310,376.060028 
	C169.621552,330.595734 177.236984,286.808319 192.639481,244.194611 
	C204.457413,211.498230 222.164963,182.223221 244.376419,155.551086 
	C275.477020,118.204597 312.680389,88.702637 356.633179,67.868431 
	C373.462067,59.891327 390.920349,53.468643 409.059387,47.742325 
M620.585510,803.150391 
	C645.724365,767.906677 669.826050,731.966003 692.719421,695.225342 
	C728.155762,638.354980 761.277893,580.211609 787.795166,518.555969 
	C809.432739,468.246002 827.894653,417.108246 826.951416,361.098541 
	C826.632141,342.139099 826.615356,323.179108 823.404175,304.444580 
	C817.681824,271.058624 806.593018,239.539627 790.209961,209.838867 
	C766.974487,167.715393 735.809998,132.708313 696.463745,105.104134 
	C638.601746,64.509880 573.923706,45.121025 503.528595,44.471767 
	C489.952484,44.346554 476.337158,45.483185 462.789886,47.183899 
	C432.249847,51.017872 402.943268,59.226017 374.608582,71.088974 
	C339.066010,85.969681 307.320465,106.600670 279.439850,133.283997 
	C253.842850,157.781738 232.358719,185.292587 215.972763,216.768982 
	C195.608124,255.888153 185.647125,297.852356 182.531998,341.490173 
	C181.111923,361.382996 182.027008,381.401733 185.504562,401.148590 
	C190.966797,432.165375 199.972061,462.202942 211.189743,491.585022 
	C229.881882,540.544617 253.580826,587.072693 279.482208,632.563293 
	C312.136658,689.914246 348.290314,745.017944 386.135773,799.013916 
	C419.104431,846.051941 454.175812,891.540649 489.903778,936.511536 
	C494.585144,942.403992 498.894073,948.748230 505.019348,953.791199 
	C507.318207,951.308960 509.324188,949.319092 511.132263,947.163330 
	C528.672974,926.249268 545.249634,904.570068 561.895203,882.949036 
	C581.894836,856.971130 601.327087,830.571533 620.585510,803.150391 
z"/>
<path fill="#000000" opacity="1.000000" stroke="none" 
	d="
M424.320374,501.771118 
	C384.826172,476.259552 357.020386,442.378052 349.182373,395.506256 
	C340.778900,345.252686 351.717255,299.455048 385.772034,260.190918 
	C409.503052,232.829727 439.454590,215.579514 474.587036,209.313080 
	C514.584106,202.178955 553.031250,208.981796 588.270813,230.190811 
	C624.921509,252.249084 648.557495,284.474060 658.455994,325.726685 
	C670.461731,375.761505 662.769836,422.573273 629.580261,463.372925 
	C605.284546,493.239410 574.661072,513.793396 536.440979,520.889221 
	C497.093048,528.194397 459.422760,522.900085 424.320374,501.771118 
M573.191528,233.432129 
	C569.257690,231.654251 565.362183,229.784821 561.382996,228.115112 
	C547.811584,222.420517 533.659302,219.300827 518.983643,218.081604 
	C505.357361,216.949554 491.738495,216.390656 478.282349,218.926208 
	C461.885864,222.015854 446.371063,227.704391 431.773560,235.979507 
	C400.734985,253.574829 378.953735,279.087494 366.250305,312.284302 
	C357.157837,336.044891 355.647705,360.749023 358.275146,385.856384 
	C360.096313,403.259125 365.414093,419.492645 373.733429,434.872314 
	C381.974213,450.106750 392.953735,462.991241 405.609009,474.709808 
	C422.247467,490.116760 441.185638,501.399719 462.932068,507.709198 
	C481.420288,513.073303 500.240662,514.682495 519.540894,512.839539 
	C539.196655,510.962677 557.633789,505.758331 574.852051,496.220673 
	C590.829407,487.370331 604.695801,475.964996 616.880432,462.285706 
	C629.536926,448.076599 639.580627,432.416718 645.613770,414.380798 
	C651.559082,396.607391 653.589172,378.370514 652.900940,359.525269 
	C652.160339,339.249054 647.984985,319.948303 639.447815,301.789764 
	C625.352661,271.809601 603.451965,248.987198 573.191528,233.432129 
z"/>
<path fill="#000000" opacity="1.000000" stroke="none" 
	d="
M393.103699,440.775452 
	C381.325653,422.688904 373.490601,403.425964 370.786072,382.325439 
	C367.658783,357.926331 371.087555,334.382355 381.152313,311.869934 
	C395.070740,280.737701 417.700409,257.894928 448.003510,242.739410 
	C470.625275,231.425568 494.710236,228.827576 519.776855,231.420609 
	C540.030090,233.515732 558.622070,239.521484 575.805847,250.367004 
	C595.163391,262.584564 610.440186,278.651337 622.047180,298.297729 
	C636.070312,322.033691 642.304504,347.901825 640.070679,375.148865 
	C638.064697,399.615875 629.811218,422.410950 615.575928,442.745667 
	C594.773010,472.462097 566.341003,491.139282 531.022156,497.988770 
	C491.345154,505.683411 454.826813,496.728333 422.455017,472.319580 
	C410.969879,463.659668 401.476410,452.935028 393.103699,440.775452 
M621.050842,409.617554 
	C627.856384,390.598633 631.327942,371.318573 628.896667,350.876526 
	C621.635376,289.823883 569.754944,248.164368 525.014526,242.640732 
	C494.856934,238.917511 466.873016,242.732376 440.602722,258.854797 
	C396.592865,285.864197 372.881836,338.386261 382.667389,388.843414 
	C395.781372,456.462891 462.783875,501.666199 529.766724,487.283875 
	C573.469971,477.900055 603.837097,451.835052 621.050842,409.617554 
z"/>
</svg>